<svg width="40" height="40" viewBox="0 0 40 40" fill="none" xmlns="http://www.w3.org/2000/svg">
<path d="M3.91366 5.49989C4.51113 1.91062 7.88056 -0.510586 11.4395 0.0919847L34.2083 3.94705C37.7671 4.5496 40.1679 7.94778 39.5705 11.5371L35.748 34.5001C35.1506 38.0892 31.7811 40.5106 28.2222 39.908L5.45338 36.0529C1.89446 35.4504 -0.506268 32.0522 0.0912067 28.4629L3.91366 5.49989Z" fill="#B4DBBE"/>
<path d="M30.6974 2.73511H8.91686C5.30814 2.73511 2.38269 5.68551 2.38269 9.32501V31.2914C2.38269 34.9309 5.30814 37.8813 8.91686 37.8813H30.6974C34.3061 37.8813 37.2316 34.9309 37.2316 31.2914V9.32501C37.2316 5.68551 34.3061 2.73511 30.6974 2.73511Z" fill="url(#paint0_linear_24_174)"/>
<path fill-rule="evenodd" clip-rule="evenodd" d="M24.1288 10.6719C24.7206 10.77 25.2237 10.8725 25.7443 11.0793C26.2929 11.341 26.7168 11.7383 27.0158 12.2711C27.6521 13.2425 28.5322 15.3338 28.826 16.6463C29.0654 16.2701 29.3446 15.9231 29.6637 15.6053C29.7972 15.4978 29.9469 15.4223 30.1124 15.379C30.4454 15.3059 31.037 15.2795 31.3092 15.3338C31.4933 15.3989 31.6129 15.5246 31.6682 15.7109C31.7237 16.158 31.7586 16.8117 31.6531 17.2498C31.5721 17.4441 31.4275 17.5548 31.2195 17.5817C30.5312 17.6873 29.7894 17.6686 29.0952 17.6873C29.7515 18.3194 30.2553 19.0586 30.6061 19.9051C31.037 21.1723 30.7763 24.3582 30.5911 25.457C30.4925 26.043 30.3836 26.5922 30.0377 27.026C29.8597 27.2308 29.6154 27.3738 29.3644 27.4708V28.2632C29.4093 29.4478 29.0085 29.6675 28.7278 29.7114C28.2491 29.7165 27.3105 29.7266 26.8318 29.7114C26.3962 29.5577 26.208 29.338 26.208 28.7761C26.208 28.474 26.1882 28.1729 26.1932 27.8709C24.8678 27.9559 23.5414 28.0163 22.2139 28.0519C20.1994 28.0556 18.1849 28.0455 16.1705 28.0218C15.2425 27.9794 14.2402 27.9682 13.3133 27.9102V28.7888C13.3133 29.4478 12.9369 29.6993 12.5013 29.7114C11.9629 29.7266 11.5332 29.7165 10.9946 29.7114C10.65 29.6965 10.1868 29.4478 10.1868 28.7888C10.1868 28.2397 10.1868 27.4785 10.1868 27.4785C9.23424 27.2512 9.09571 26.0321 8.97511 25.5174C8.71078 23.9782 8.62105 22.4293 8.70586 20.8706C8.86414 20.0693 9.17329 19.3351 9.63332 18.6679C9.89525 18.3232 10.1795 17.9963 10.486 17.6873C10.0186 17.6873 9.58303 17.642 9.13967 17.642C8.87179 17.642 8.6029 17.642 8.33187 17.5817C8.17855 17.5329 8.00941 17.442 7.9579 17.3101C7.88974 17.1358 7.84986 16.9547 7.83821 16.767C7.80613 16.4015 7.83828 15.9233 7.94962 15.7188C8.06922 15.4991 8.2525 15.3946 8.33187 15.3893C8.71501 15.3638 9.47293 15.3485 9.79787 15.545L10.0971 15.7864C10.3296 16.0595 10.5441 16.3461 10.7403 16.6463C11.1189 14.9877 11.9466 13.0867 12.9542 11.728C13.2183 11.4314 13.5325 11.2051 13.8967 11.0491C14.3716 10.8665 14.8603 10.7357 15.3627 10.6569C17.3152 10.3502 22.1069 10.337 24.1288 10.6719ZM14.1659 21.1723C14.157 20.6612 13.8373 20.2067 13.5975 20.0107C13.058 19.6143 12.4696 19.5238 11.8323 19.7391C11.0243 20.1671 10.7001 20.8359 10.86 21.7456C11.0231 22.3173 11.4344 22.7481 12.1315 22.9827C12.4529 23.029 12.772 23.0139 13.0889 22.9374C13.8259 22.582 14.185 21.9938 14.1659 21.1723ZM28.7511 21.0516C28.6411 20.1121 27.8788 19.4531 26.7018 19.6335C25.7007 19.8924 25.2152 20.7921 25.4901 21.9267C25.9318 22.8458 26.6449 23.1828 27.6292 22.9374C28.4346 22.5763 28.8086 21.9476 28.7511 21.0516ZM17.0979 24.8836C18.7729 24.9181 20.4483 24.9232 22.1241 24.8988C22.3374 24.8935 22.5467 24.8632 22.7525 24.8083C23.0871 24.6152 23.4519 24.2236 23.695 23.8275C23.8747 23.5171 23.82 23.2608 23.5303 23.0582C22.9782 22.7481 16.3852 22.7134 15.9909 23.0883C15.7542 23.3135 15.7193 23.5701 15.8862 23.8578C16.1073 24.1715 16.3616 24.4582 16.6491 24.7178C16.72 24.7734 16.9084 24.8797 17.0979 24.8836ZM24.8295 12.2042C23.3049 11.8747 16.3351 11.8198 14.8104 12.2042C14.3748 12.314 13.9814 12.4238 13.762 12.7841C12.9314 14.1481 12.358 15.6166 12.0418 17.1894C16.3748 16.8209 23.1663 16.9114 27.5096 17.1593C27.2086 15.5723 26.6303 14.0988 25.7744 12.7388C25.6034 12.614 25.4716 12.3429 24.8295 12.2042Z" fill="white"/>
<defs>
<linearGradient id="paint0_linear_24_174" x1="37.2316" y1="37.8813" x2="0.548328" y2="35.8492" gradientUnits="userSpaceOnUse">
<stop stop-color="#21A038"/>
<stop offset="1" stop-color="#00C036"/>
</linearGradient>
</defs>
</svg>
